<?xml version="1.0" encoding="UTF-8" standalone="no"?>
<svg
   inkscape:version="1.2.2 (b0a84865, 2022-12-01)"
   sodipodi:docname="Swagstore-Logo2.svg"
   version="1.1"
   viewBox="0 0 316.16 60"
   data-name="Layer 1"
   id="Layer_1"
   xml:space="preserve"
   xmlns:inkscape="http://www.inkscape.org/namespaces/inkscape"
   xmlns:sodipodi="http://sodipodi.sourceforge.net/DTD/sodipodi-0.dtd"
   xmlns="http://www.w3.org/2000/svg"
   xmlns:svg="http://www.w3.org/2000/svg"
   xmlns:rdf="http://www.w3.org/1999/02/22-rdf-syntax-ns#"
   xmlns:cc="http://creativecommons.org/ns#"
   xmlns:dc="http://purl.org/dc/elements/1.1/"><metadata
     id="metadata1078"><rdf:RDF><cc:Work
         rdf:about=""><dc:format>image/svg+xml</dc:format><dc:type
           rdf:resource="http://purl.org/dc/dcmitype/StillImage" /><dc:title>Swagstore</dc:title></cc:Work></rdf:RDF></metadata><sodipodi:namedview
     inkscape:current-layer="g1073"
     inkscape:window-maximized="0"
     inkscape:window-y="169"
     inkscape:window-x="4209"
     inkscape:cy="83.258427"
     inkscape:cx="139.87416"
     inkscape:zoom="2.2520243"
     showgrid="false"
     id="namedview1076"
     inkscape:window-height="1205"
     inkscape:window-width="1390"
     inkscape:pageshadow="2"
     inkscape:pageopacity="0"
     guidetolerance="10"
     gridtolerance="10"
     objecttolerance="10"
     borderopacity="1"
     bordercolor="#666666"
     pagecolor="#ff54ff"
     inkscape:showpageshadow="2"
     inkscape:pagecheckerboard="0"
     inkscape:deskcolor="#ff54ff" /><defs
     id="defs1033"><style
       id="style1031">.cls-1{fill:#4cc8c6}.cls-2{fill:#fff}</style></defs><title
     id="title1035">Hipster</title><g
     id="g1073"><g
       id="g1071"
       style="display:inline"><text
         xml:space="preserve"
         style="font-size:46.6667px;font-family:sans-serif;-inkscape-font-specification:'sans-serif, Normal';fill:#000080"
         x="61.27821"
         y="45.072361"
         id="text296"><tspan
           id="tspan294"
           x="61.27821"
           y="45.072361"
           style="font-style:normal;font-variant:normal;font-weight:normal;font-stretch:normal;font-size:53.3333px;font-family:Arial;-inkscape-font-specification:'Arial, Normal';font-variant-ligatures:normal;font-variant-caps:normal;font-variant-numeric:normal;font-variant-east-asian:normal;fill:#632ca6;fill-opacity:1"
           sodipodi:role="line">Swagstore</tspan></text></g><path
       class="st0"
       d="m 50.62154,42.395674 -4.631432,-3.054896 -3.863643,6.453709 -4.493608,-1.31389 -3.956612,6.038935 0.20284,1.900943 21.512357,-3.963764 -1.249522,-13.441159 z m -20.061953,-5.795138 3.45147,-0.474584 c 0.558452,0.250944 0.94722,0.346511 1.616839,0.516841 1.042789,0.271749 2.250054,0.532446 4.037874,-0.368616 0.416075,-0.206086 1.282682,-0.998578 1.633096,-1.450409 l 14.141336,-2.565361 1.442607,17.459529 -24.226596,4.366187 z m 26.268612,-6.291179 -1.395798,0.265899 -2.681729,-27.70667 -45.6940989,5.29845 5.6293579,45.682394 5.34851,-0.77624 c -0.427126,-0.609807 -1.092196,-1.347693 -2.227949,-2.292313 -1.575235,-1.308684 -1.018081,-3.531431 -0.08906,-4.935035 1.229371,-2.371625 7.56346,-5.385563 7.204595,-9.176394 -0.128723,-1.378246 -0.347813,-3.172568 -1.627245,-4.40194 -0.0481,0.510342 0.03838,1.001831 0.03838,1.001831 0,0 -0.525296,-0.67027 -0.787291,-1.584334 -0.260044,-0.350413 -0.464184,-0.462234 -0.74048,-0.930317 -0.19699,0.541547 -0.170981,1.16956 -0.170981,1.16956 0,0 -0.429726,-1.015482 -0.499293,-1.872336 -0.254845,0.383568 -0.319206,1.112349 -0.319206,1.112349 0,0 -0.558448,-1.600587 -0.431026,-2.462641 -0.254849,-0.750235 -1.010281,-2.239002 -0.796396,-5.622859 1.394503,0.977126 4.46435,0.745034 5.660569,-1.018082 0.397219,-0.583804 0.668969,-2.17789 -0.198288,-5.318605 -0.557149,-2.014061 -1.936694,-5.013048 -2.474341,-6.150753 l -0.06435,0.04615 c 0.283448,0.916666 0.867903,2.838409 1.092195,3.770027 0.678719,2.826056 0.860751,3.809683 0.542197,5.112517 -0.271101,1.132503 -0.921214,1.873637 -2.56926,2.701884 -1.648047,0.83085 -3.835041,-1.191014 -3.973514,-1.302833 -1.601236,-1.275529 -2.83971,-3.356552 -2.978184,-4.367483 -0.143679,-1.106499 0.637766,-1.770918 1.031734,-2.675881 -0.563649,0.161229 -1.192314,0.447281 -1.192314,0.447281 0,0 0.750236,-0.776239 1.675349,-1.44781 0.382922,-0.253546 0.607858,-0.414774 1.011582,-0.750235 -0.58445,-0.0098 -1.059042,0.0072 -1.059042,0.0072 0,0 0.974529,-0.526596 1.984811,-0.910162 -0.739186,-0.03251 -1.446508,-0.0052 -1.446508,-0.0052 0,0 2.174637,-0.972576 3.892245,-1.686404 1.181263,-0.484336 2.335217,-0.34131 2.983385,0.596157 0.851006,1.228072 1.744915,1.89509 3.639351,2.308564 1.16306,-0.515542 1.516724,-0.780789 2.978183,-1.178661 1.286583,-1.414654 2.296864,-1.597986 2.296864,-1.597986 0,0 -0.501237,0.459632 -0.63516,1.181912 0.729429,-0.574704 1.52907,-1.05449 1.52907,-1.05449 0,0 -0.309454,0.382269 -0.598107,0.989478 l 0.06696,0.09946 c 0.851006,-0.510341 1.851531,-0.912764 1.851531,-0.912764 0,0 -0.286047,0.361464 -0.621509,0.829548 0.641667,-0.0052 1.943201,0.02731 2.448339,0.08452 2.982084,0.06566 3.600997,-3.184921 4.745202,-3.592544 1.432856,-0.511641 2.073222,-0.821097 4.51506,1.577183 2.095324,2.058919 3.73232,5.744431 2.919672,6.57008 -0.681319,0.685222 -2.025762,-0.267199 -3.515829,-2.124582 -0.78729,-0.983626 -1.382797,-2.146036 -1.661698,-3.62375 -0.235343,-1.246924 -1.151355,-1.970504 -1.151355,-1.970504 0,0 0.531795,1.181913 0.531795,2.225999 0,0.570153 0.07151,2.701885 0.985575,3.8981 -0.09036,0.174881 -0.132623,0.865305 -0.232743,0.997279 -1.063591,-1.285279 -3.347448,-2.205196 -3.719963,-2.476295 1.260575,1.033036 4.158146,3.405963 5.271141,5.680069 1.05254,2.150586 0.432327,4.12174 0.964777,4.632081 0.151474,0.146277 2.263705,2.777949 2.670025,4.100287 0.708624,2.304668 0.04228,4.726353 -0.885464,6.228772 l -2.590708,0.403684 c -0.379013,-0.105311 -0.634512,-0.157971 -0.974525,-0.354956 0.187238,-0.33156 0.559753,-1.158508 0.563654,-1.328838 l -0.146279,-0.256798 c -0.806142,1.142255 -2.157086,2.251355 -3.279187,2.888469 -1.468616,0.832149 -3.161517,0.704076 -4.263467,0.362764 -3.127708,-0.964771 -6.085089,-3.078301 -6.798268,-3.633501 0,0 -0.02211,0.44338 0.112472,0.542848 0.788589,0.889359 2.595261,2.498399 4.341478,3.619849 l -3.722569,0.409573 1.759867,13.703155 c -0.78014,0.111821 -0.90171,0.166431 -1.755966,0.288003 -0.752833,-2.659629 -2.19284,-4.396089 -3.766774,-5.407671 -1.387997,-0.891959 -3.302596,-1.092843 -5.13527,-0.730078 l -0.117672,0.136523 c 1.274228,-0.132623 2.778596,0.05201 4.323922,1.030437 1.516725,0.958922 2.738941,3.435862 3.188825,4.927235 0.576003,1.906142 0.974522,3.944905 -0.576006,6.105892 -1.103244,1.536226 -4.323921,2.385277 -6.925689,0.548696 0.694971,1.117552 1.63439,2.031614 2.898872,2.203895 1.877532,0.254849 3.659502,-0.07087 4.886275,-1.330136 1.047334,-1.076592 1.602537,-3.327947 1.456258,-5.698923 l 1.657148,-0.240543 0.598107,4.255666 27.433622,-3.303245 z M 40.137756,18.752235 c -0.07672,0.174882 -0.196984,0.289303 -0.01622,0.858154 l 0.01102,0.03251 0.0286,0.07346 0.07542,0.17033 c 0.325705,0.665719 0.683269,1.293733 1.280726,1.614239 0.15473,-0.026 0.314655,-0.04356 0.480436,-0.05201 0.561053,-0.0247 0.915367,0.06435 1.140303,0.185284 0.02018,-0.11182 0.02471,-0.27565 0.01238,-0.516843 -0.04358,-0.843201 0.16708,-2.277358 -1.453658,-3.032143 -0.611759,-0.284102 -1.469917,-0.196336 -1.755969,0.157978 0.05201,0.0066 0.09882,0.01754 0.135229,0.0299 0.432326,0.151477 0.139122,0.300353 0.06175,0.479136 m 4.542362,7.867711 c -0.212585,-0.117021 -1.205964,-0.07087 -1.904191,0.01234 -1.330136,0.156679 -2.766244,0.618261 -3.080904,0.864006 -0.572099,0.442078 -0.312053,1.213117 0.11052,1.529724 1.185164,0.885458 2.224052,1.479014 3.320797,1.334689 0.673518,-0.08842 1.267076,-1.154607 1.687701,-2.121982 0.288002,-0.66637 0.288002,-1.385398 -0.133923,-1.61879 M 32.903907,19.796311 c 0.375116,-0.356264 -1.868438,-0.824348 -3.609449,0.362765 -1.283983,0.875708 -1.324936,2.753245 -0.09556,3.817485 0.122871,0.105319 0.224291,0.180082 0.31921,0.241193 0.358865,-0.16903 0.767789,-0.340011 1.238468,-0.492788 0.795096,-0.258097 1.456264,-0.391371 1.99976,-0.462232 0.26005,-0.290603 0.562354,-0.802245 0.486937,-1.728661 -0.10272,-1.256675 -1.055141,-1.057089 -0.339357,-1.737762"
       id="path4"
       style="clip-rule:evenodd;fill:#632ca6;fill-rule:evenodd;stroke-width:0.0650118" /></g></svg>
